<svg width="20" height="20" viewBox="0 0 20 20" fill="none" xmlns="http://www.w3.org/2000/svg">
<path d="M9.99998 0C4.48571 0 0 4.48571 0 9.99998C0 15.5143 4.48571 20 9.99998 20C15.5143 20 20 15.5143 20 9.99998C20 4.48571 15.5143 0 9.99998 0ZM9.99998 18.6872C5.21003 18.6872 1.31274 14.7899 1.31274 9.99998C1.31274 5.21003 5.21003 1.31274 9.99998 1.31274C14.7899 1.31274 18.6872 5.21003 18.6872 9.99998C18.6872 14.7899 14.7899 18.6872 9.99998 18.6872Z" fill="#524F5E"/>
<path d="M10.2572 13.2783C7.79933 13.2783 6.84721 11.5594 6.83254 9.91072C6.81864 8.24817 7.8557 6.45821 10.2572 6.45821C11.1237 6.45821 12.0047 6.75628 12.6588 7.39566L13.909 6.18794C12.8858 5.17945 11.607 4.66748 10.2572 4.66748C6.66265 4.66748 4.97154 7.30995 4.98544 9.91072C4.99934 12.4968 6.56227 15.0404 10.2572 15.0404C11.692 15.0404 13.014 14.5717 14.0372 13.5624L12.7584 12.2698C12.1043 12.9231 11.1244 13.2783 10.2572 13.2783Z" fill="#524F5E"/>
</svg>
