<svg width="39" height="39" viewBox="0 0 39 39" fill="none" xmlns="http://www.w3.org/2000/svg">
<path d="M15.2099 6.396C20.0459 6.396 24.0239 10.374 24.0239 15.21C24.0239 20.046 20.0459 24.024 15.2099 24.024C10.3739 24.024 6.39591 20.124 6.39591 15.21C6.39591 10.296 10.2959 6.396 15.2099 6.396ZM15.2099 4.056C9.04791 4.056 4.05591 9.048 4.05591 15.21C4.05591 21.372 9.04791 26.364 15.2099 26.364C21.3719 26.364 26.3639 21.372 26.3639 15.21C26.3639 9.048 21.2939 4.056 15.2099 4.056Z" fill="#435C6B"/>
<path d="M22.4639 22.386L25.0379 24.96" stroke="#435C6B" stroke-width="3" stroke-miterlimit="10"/>
<path d="M34.944 34.944L25.74 25.74" stroke="#435C6B" stroke-width="5" stroke-miterlimit="10" stroke-linecap="round"/>
</svg>
