<svg width="32" height="34" viewBox="0 0 32 34" fill="none" xmlns="http://www.w3.org/2000/svg">
<g filter="url(#filter0_d_14_3714)">
<path fill-rule="evenodd" clip-rule="evenodd" d="M6.40675 7.25H5C4.44772 7.25 4 6.80228 4 6.25C4 5.69772 4.44772 5.25 5 5.25H6.40675C6.82853 3.94437 8.05398 3 9.5 3C10.946 3 12.1715 3.94437 12.5933 5.25H27C27.5523 5.25 28 5.69772 28 6.25C28 6.80228 27.5523 7.25 27 7.25H12.5933C12.1715 8.55563 10.946 9.5 9.5 9.5C8.05398 9.5 6.82853 8.55563 6.40675 7.25ZM7.75 6.25C7.75 5.2835 8.5335 4.5 9.5 4.5C10.4665 4.5 11.25 5.2835 11.25 6.25C11.25 7.2165 10.4665 8 9.5 8C8.5335 8 7.75 7.2165 7.75 6.25Z" fill="white"/>
<path fill-rule="evenodd" clip-rule="evenodd" d="M5 15.25H19.4458C19.8676 16.5556 21.093 17.5 22.5391 17.5C23.9851 17.5 25.2105 16.5556 25.6323 15.25H27C27.5523 15.25 28 14.8023 28 14.25C28 13.6977 27.5523 13.25 27 13.25H25.6323C25.2105 11.9444 23.9851 11 22.5391 11C21.093 11 19.8676 11.9444 19.4458 13.25H5C4.44772 13.25 4 13.6977 4 14.25C4 14.8023 4.44772 15.25 5 15.25ZM22.5391 12.5C21.5726 12.5 20.7891 13.2835 20.7891 14.25C20.7891 15.2165 21.5726 16 22.5391 16C23.5056 16 24.2891 15.2165 24.2891 14.25C24.2891 13.2835 23.5056 12.5 22.5391 12.5Z" fill="white"/>
<path fill-rule="evenodd" clip-rule="evenodd" d="M12.4067 23.25H5C4.44772 23.25 4 22.8023 4 22.25C4 21.6977 4.44772 21.25 5 21.25H12.4067C12.8285 19.9444 14.054 19 15.5 19C16.946 19 18.1715 19.9444 18.5933 21.25H27C27.5523 21.25 28 21.6977 28 22.25C28 22.8023 27.5523 23.25 27 23.25H18.5933C18.1715 24.5556 16.946 25.5 15.5 25.5C14.054 25.5 12.8285 24.5556 12.4067 23.25ZM13.75 22.25C13.75 21.2835 14.5335 20.5 15.5 20.5C16.4665 20.5 17.25 21.2835 17.25 22.25C17.25 23.2165 16.4665 24 15.5 24C14.5335 24 13.75 23.2165 13.75 22.25Z" fill="white"/>
</g>
<defs>
<filter id="filter0_d_14_3714" x="-2" y="0" width="36" height="36" filterUnits="userSpaceOnUse" color-interpolation-filters="sRGB">
<feFlood flood-opacity="0" result="BackgroundImageFix"/>
<feColorMatrix in="SourceAlpha" type="matrix" values="0 0 0 0 0 0 0 0 0 0 0 0 0 0 0 0 0 0 127 0" result="hardAlpha"/>
<feOffset dy="4"/>
<feGaussianBlur stdDeviation="2"/>
<feComposite in2="hardAlpha" operator="out"/>
<feColorMatrix type="matrix" values="0 0 0 0 0 0 0 0 0 0 0 0 0 0 0 0 0 0 0.25 0"/>
<feBlend mode="normal" in2="BackgroundImageFix" result="effect1_dropShadow_14_3714"/>
<feBlend mode="normal" in="SourceGraphic" in2="effect1_dropShadow_14_3714" result="shape"/>
</filter>
</defs>
</svg>
