<svg width="32" height="32" viewBox="0 0 32 32" fill="none" xmlns="http://www.w3.org/2000/svg">
<g clip-path="url(#clip0_2033_5)">
<path fill-rule="evenodd" clip-rule="evenodd" d="M5 25H9V13H5V25ZM27 14C27 12.9 26.1 12 25 12H18.7L19.7 7.4V7.1C19.7 6.7 19.5 6.3 19.3 6L18.2 5L11.6 11.6C11.2 11.9 11 12.4 11 13V23C11 24.1 11.9 25 13 25H22C22.8 25 23.5 24.5 23.8 23.8L26.8 16.7C26.9 16.5 26.9 16.2 26.9 16V14H27C27 14 27 14.1 27 14Z" fill="#52FF00"/>
</g>
<defs>
<clipPath id="clip0_2033_5">
<rect width="22" height="20" fill="white" transform="translate(5 5)"/>
</clipPath>
</defs>
</svg>
