<svg width="65" height="63" viewBox="0 0 65 63" fill="none" xmlns="http://www.w3.org/2000/svg">
<path d="M32.8858 19.6239L36.1843 26.5897C36.3217 26.879 36.5864 27.0795 36.8932 27.1263L44.2693 28.2434C45.0413 28.3601 45.3491 29.3485 44.7906 29.9161L39.4528 35.3379C39.2312 35.5634 39.1299 35.8875 39.1821 36.2057L40.4423 43.8617C40.5737 44.6627 39.7676 45.2741 39.0768 44.895L32.4797 41.2805C32.206 41.1299 31.8782 41.1299 31.6045 41.2805L25.0074 44.895C24.3176 45.2731 23.5105 44.6627 23.6418 43.8617L24.9021 36.2057C24.9542 35.8875 24.853 35.5634 24.6314 35.3379L19.2936 29.9161C18.7351 29.3485 19.0429 28.3601 19.8149 28.2434L27.191 27.1263C27.4978 27.0795 27.7625 26.879 27.8999 26.5897L31.1984 19.6239C31.5433 18.8948 32.5399 18.8948 32.8858 19.6239Z" stroke="#524F5E" stroke-width="2" stroke-miterlimit="10" stroke-linecap="round" stroke-linejoin="round"/>
</svg>
