<svg width="187" height="187" viewBox="0 0 187 187" fill="none" xmlns="http://www.w3.org/2000/svg">
<path d="M52.0974 70.1021C54.7889 75.8453 57.6912 82.0576 60.539 87.5562H138.423C139.11 82.7237 139.742 76.0764 140.238 70.1021H52.0974Z" fill="#AF8023"/>
<path d="M143.84 52.5528H43.7441C44.8044 54.619 48.6718 60.838 49.8816 63.3936H140.619C140.829 60.5866 143.725 54.2995 143.84 52.5528Z" fill="#766ED3"/>
<path d="M72.3518 105.479C80.8682 107.648 134.801 99.5933 136.969 95.9775C137.18 95.6308 137.39 94.9783 137.594 94.1015H63.0674C66.5337 100.28 69.7962 104.827 72.3518 105.479Z" fill="#F8DC25"/>
<path d="M158.562 45.722C150.794 45.722 147.973 54.6462 146.641 65.3987H140.619H49.8817H46.3473C39.367 53.0965 31.5779 43.3975 21.4303 43.3975C20.1321 43.3975 19.0786 44.451 19.0786 45.7492C19.0786 47.0474 20.1321 48.1009 21.4303 48.1009C28.6621 48.1009 35.0647 55.6521 40.8895 65.4055H40.0263C38.7281 65.4055 37.6746 66.459 37.6746 67.7572C37.6746 69.0554 38.7281 70.1089 40.0263 70.1089H43.5742C45.9667 74.4792 48.264 79.0942 50.4866 83.5529C51.1594 84.9123 51.8255 86.2444 52.4916 87.563H51.6556C50.3574 87.563 49.3039 88.6165 49.3039 89.9147C49.3039 91.2129 50.3574 92.2664 51.6556 92.2664H54.8841C61.5653 105.167 67.9543 115.042 76.294 115.042C90.7711 115.042 120.99 111.107 136.779 105.84C125.183 115.838 102.4 120.317 84.5521 123.817C67.295 127.209 58.9622 129.057 58.1058 133.978C57.8407 135.487 58.2417 136.894 59.2612 138.043C61.9459 141.081 68.8107 141.563 72.8548 141.563V144.418C70.5439 145.349 68.9059 147.606 68.9059 150.25C68.9059 153.73 71.7265 156.544 75.1997 156.544C78.6796 156.544 81.4935 153.723 81.4935 150.25C81.4935 147.606 79.8555 145.349 77.5446 144.418V141.509H129.397V144.418C127.086 145.349 125.448 147.606 125.448 150.25C125.448 153.73 128.269 156.544 131.742 156.544C135.222 156.544 138.036 153.723 138.036 150.25C138.036 147.606 136.398 145.349 134.087 144.418V141.509H146.369C147.667 141.509 148.721 140.456 148.721 139.157C148.721 137.859 147.667 136.806 146.369 136.806H131.742H75.2065C75.1997 136.806 75.1997 136.806 75.1929 136.806C75.1861 136.806 75.1861 136.806 75.1793 136.806H75.0841C68.8447 137.112 63.2102 135.983 62.7072 134.848C63.7743 132.68 76.3008 130.22 85.4492 128.425C110.421 123.525 144.513 116.81 148.578 95.0599C148.605 94.9375 148.632 94.8152 148.653 94.686C148.666 94.6113 148.687 94.5365 148.7 94.4618C148.7 94.4482 148.7 94.4414 148.7 94.4278C148.829 93.7413 148.952 93.0276 149.067 92.2596H151.12C152.418 92.2596 153.471 91.2061 153.471 89.9079C153.471 88.6097 152.418 87.5562 151.12 87.5562H149.597C149.822 85.089 150.005 82.3363 150.202 79.2709C150.386 76.3755 150.59 73.2218 150.875 70.1021H152.52C153.818 70.1021 154.872 69.0486 154.872 67.7504C154.872 66.4522 153.818 65.3987 152.52 65.3987H151.392C152.445 57.2765 154.382 50.4186 158.562 50.4186C159.86 50.4186 160.914 49.3651 160.914 48.0669C160.907 46.7755 159.86 45.722 158.562 45.722ZM60.1924 92.2596H63.0674H137.594H144.309C144.221 92.8509 144.119 93.4082 144.01 93.9316C143.976 94.1355 143.929 94.3258 143.888 94.5229C143.514 96.1813 143.059 97.4319 142.488 98.0097C137.044 103.447 96.7523 110.339 76.2804 110.339C70.9177 110.332 65.5075 102.237 60.1924 92.2596ZM145.512 78.9719C145.336 81.7382 145.145 84.7491 144.88 87.5562H138.43H60.539H57.7455C56.7192 85.5376 55.6997 83.4917 54.687 81.4527C52.7907 77.6397 50.8808 73.7995 48.9165 70.1021H52.0906H140.238H146.145C145.886 73.0451 145.696 76.0425 145.512 78.9719Z" fill="#435C6B"/>
</svg>
