<svg width="67" height="53" viewBox="0 0 67 53" fill="none" xmlns="http://www.w3.org/2000/svg">
<path d="M16.2378 12.6144C17.49 15.2864 18.8402 18.1766 20.1652 20.7348H56.4001C56.7195 18.4865 57.0136 15.3939 57.2444 12.6144H16.2378Z" fill="#AF8023"/>
<path d="M58.9204 4.44971H12.3516C12.8449 5.411 14.6441 8.30436 15.207 9.49332H57.4216C57.5196 8.18736 58.8667 5.26238 58.9204 4.44971Z" fill="#766ED3"/>
<path d="M25.661 29.0733C29.6232 30.0821 54.7148 26.3349 55.7235 24.6527C55.8215 24.4914 55.9196 24.1878 56.0144 23.7799H21.3416C22.9542 26.6543 24.4721 28.7698 25.661 29.0733Z" fill="#F8DC25"/>
<path d="M65.7697 1.27176C62.1554 1.27176 60.8431 5.42365 60.2233 10.4262H57.4216H15.207H13.5627C10.3152 4.70268 6.6914 0.190308 1.97032 0.190308C1.36635 0.190308 0.876221 0.680439 0.876221 1.28441C0.876221 1.88838 1.36635 2.37851 1.97032 2.37851C5.33484 2.37851 8.31358 5.89165 11.0235 10.4293H10.6219C10.018 10.4293 9.52784 10.9195 9.52784 11.5234C9.52784 12.1274 10.018 12.6175 10.6219 12.6175H12.2726C13.3857 14.6508 14.4545 16.7979 15.4885 18.8722C15.8015 19.5047 16.1114 20.1244 16.4213 20.7379H16.0324C15.4284 20.7379 14.9383 21.228 14.9383 21.832C14.9383 22.436 15.4284 22.9261 16.0324 22.9261H17.5344C20.6428 28.9278 23.6152 33.5224 27.4951 33.5224C34.2305 33.5224 48.2894 31.6916 55.635 29.2409C50.2404 33.8924 39.6409 35.9763 31.3371 37.6048C23.3085 39.1827 19.4317 40.0428 19.0332 42.3322C18.9099 43.0342 19.0965 43.6887 19.5708 44.2231C20.8198 45.6366 24.0136 45.8611 25.8951 45.8611V47.1892C24.82 47.6224 24.0579 48.6723 24.0579 49.9023C24.0579 51.5213 25.3702 52.8305 26.986 52.8305C28.605 52.8305 29.9142 51.5182 29.9142 49.9023C29.9142 48.6723 29.1521 47.6224 28.077 47.1892V45.8358H52.2009V47.1892C51.1258 47.6224 50.3637 48.6723 50.3637 49.9023C50.3637 51.5213 51.676 52.8305 53.2919 52.8305C54.9109 52.8305 56.22 51.5182 56.22 49.9023C56.22 48.6723 55.4579 47.6224 54.3828 47.1892V45.8358H60.0968C60.7008 45.8358 61.1909 45.3457 61.1909 44.7417C61.1909 44.1378 60.7008 43.6476 60.0968 43.6476H53.2919H26.9892C26.986 43.6476 26.986 43.6476 26.9829 43.6476C26.9797 43.6476 26.9797 43.6476 26.9765 43.6476H26.9323C24.0294 43.7899 21.408 43.265 21.174 42.7369C21.6705 41.7282 27.4983 40.5835 31.7545 39.7487C43.3722 37.4688 59.2335 34.3446 61.1245 24.2257C61.1371 24.1688 61.1498 24.1119 61.1593 24.0518C61.1656 24.017 61.1751 23.9823 61.1814 23.9475C61.1814 23.9412 61.1814 23.938 61.1814 23.9317C61.2415 23.6123 61.2984 23.2803 61.3522 22.9229H62.3071C62.9111 22.9229 63.4012 22.4328 63.4012 21.8288C63.4012 21.2249 62.9111 20.7347 62.3071 20.7347H61.5988C61.7032 19.5869 61.7886 18.3062 61.8803 16.8801C61.9656 15.533 62.0605 14.0658 62.1933 12.6144H62.9585C63.5625 12.6144 64.0526 12.1242 64.0526 11.5203C64.0526 10.9163 63.5625 10.4262 62.9585 10.4262H62.4336C62.9238 6.6474 63.825 3.4568 65.7697 3.4568C66.3737 3.4568 66.8638 2.96667 66.8638 2.3627C66.8606 1.76189 66.3737 1.27176 65.7697 1.27176ZM20.004 22.9229H21.3416H56.0145H59.1387C59.0976 23.1981 59.0501 23.4573 58.9995 23.7008C58.9837 23.7957 58.9616 23.8842 58.9426 23.9759C58.7687 24.7475 58.5568 25.3293 58.2912 25.5981C55.7584 28.1278 37.0132 31.3342 27.4888 31.3342C24.9939 31.3311 22.4768 27.565 20.004 22.9229ZM59.6984 16.741C59.6162 18.0279 59.5276 19.4288 59.4043 20.7347H56.4034H20.1653H18.8656C18.3882 19.7956 17.9138 18.8438 17.4427 17.8951C16.5604 16.1212 15.6719 14.3346 14.758 12.6144H16.2347H57.2446H59.9925C59.8723 13.9836 59.7837 15.3781 59.6984 16.741Z" fill="#435C6B"/>
</svg>
