<svg width="66" height="53" viewBox="0 0 66 53" fill="none" xmlns="http://www.w3.org/2000/svg">
<path d="M15.6807 12.8646C16.9041 15.4751 18.2233 18.2989 19.5178 20.7983H54.9198C55.2318 18.6017 55.5191 15.5802 55.7446 12.8646H15.6807Z" fill="#AF8023"/>
<path d="M57.3821 4.88763H11.8838C12.3657 5.82683 14.1236 8.65367 14.6736 9.8153H55.9177C56.0135 8.53936 57.3296 5.68162 57.3821 4.88763Z" fill="#766ED3"/>
<path d="M24.8872 28.9451C28.7583 29.9307 53.273 26.2697 54.2586 24.6261C54.3543 24.4685 54.4501 24.1719 54.5428 23.7734H20.667C22.2426 26.5817 23.7255 28.6486 24.8872 28.9451Z" fill="#F8DC25"/>
<path d="M64.0738 1.78273C60.5425 1.78273 59.2604 5.83917 58.6549 10.7267H55.9176H14.6735H13.067C9.89412 5.13478 6.35362 0.726135 1.74107 0.726135C1.15098 0.726135 0.672119 1.205 0.672119 1.79508C0.672119 2.38517 1.15098 2.86403 1.74107 2.86403C5.02824 2.86403 7.9385 6.29641 10.5862 10.7298H10.1938C9.60371 10.7298 9.12485 11.2086 9.12485 11.7987C9.12485 12.3888 9.60371 12.8677 10.1938 12.8677H11.8065C12.894 14.8542 13.9382 16.9519 14.9485 18.9786C15.2543 19.5965 15.5571 20.202 15.8598 20.8014H15.4798C14.8898 20.8014 14.4109 21.2802 14.4109 21.8703C14.4109 22.4604 14.8898 22.9393 15.4798 22.9393H16.9473C19.9843 28.803 22.8883 33.292 26.6791 33.292C33.2596 33.292 46.9953 31.5032 54.1721 29.1089C48.9015 33.6535 38.5457 35.6894 30.4328 37.2805C22.5887 38.8221 18.801 39.6625 18.4117 41.8992C18.2912 42.5851 18.4735 43.2246 18.9369 43.7467C20.1573 45.1277 23.2776 45.347 25.1158 45.347V46.6446C24.0654 47.0679 23.3209 48.0936 23.3209 49.2954C23.3209 50.8772 24.603 52.1562 26.1817 52.1562C27.7635 52.1562 29.0425 50.8741 29.0425 49.2954C29.0425 48.0936 28.298 47.0679 27.2476 46.6446V45.3223H50.817V46.6446C49.7665 47.0679 49.022 48.0936 49.022 49.2954C49.022 50.8772 50.3041 52.1562 51.8828 52.1562C53.4646 52.1562 54.7436 50.8741 54.7436 49.2954C54.7436 48.0936 53.9991 47.0679 52.9487 46.6446V45.3223H58.5313C59.1214 45.3223 59.6003 44.8435 59.6003 44.2534C59.6003 43.6633 59.1214 43.1844 58.5313 43.1844H51.8828H26.1848C26.1817 43.1844 26.1817 43.1844 26.1786 43.1844C26.1755 43.1844 26.1755 43.1844 26.1724 43.1844H26.1292C23.2931 43.3234 20.7319 42.8106 20.5033 42.2947C20.9883 41.3091 26.6822 40.1908 30.8406 39.3751C42.1912 37.1476 57.6879 34.0953 59.5354 24.209C59.5477 24.1534 59.5601 24.0978 59.5694 24.0391C59.5756 24.0051 59.5848 23.9711 59.591 23.9372C59.591 23.931 59.591 23.9279 59.591 23.9217C59.6497 23.6097 59.7053 23.2853 59.7578 22.9362H60.6908C61.2809 22.9362 61.7598 22.4573 61.7598 21.8672C61.7598 21.2771 61.2809 20.7983 60.6908 20.7983H59.9988C60.1007 19.6768 60.1842 18.4256 60.2738 17.0322C60.3572 15.7161 60.4499 14.2826 60.5796 12.8646H61.3273C61.9173 12.8646 62.3962 12.3857 62.3962 11.7956C62.3962 11.2055 61.9173 10.7267 61.3273 10.7267H60.8144C61.2933 7.03479 62.1738 3.91754 64.0738 3.91754C64.6639 3.91754 65.1427 3.43867 65.1427 2.84859C65.1396 2.26159 64.6639 1.78273 64.0738 1.78273ZM19.3602 22.9362H20.667H54.5428H57.5952C57.555 23.205 57.5087 23.4583 57.4593 23.6962C57.4438 23.7889 57.4222 23.8754 57.4037 23.965C57.2337 24.7188 57.0268 25.2873 56.7672 25.5499C54.2926 28.0214 35.9783 31.1541 26.6729 31.1541C24.2353 31.151 21.7761 27.4715 19.3602 22.9362ZM58.142 16.8963C58.0617 18.1537 57.9752 19.5223 57.8547 20.7983H54.9228H19.5178H18.248C17.7815 19.8807 17.3181 18.9508 16.8577 18.024C15.9958 16.2908 15.1276 14.5452 14.2348 12.8646H15.6776H55.7446H58.4294C58.312 14.2023 58.2255 15.5648 58.142 16.8963Z" fill="#435C6B"/>
</svg>
